<mxfile host="app.diagrams.net" agent="Mozilla/5.0 (Windows NT 10.0; Win64; x64) AppleWebKit/537.36 (KHTML, like Gecko) Chrome/134.0.0.0 Safari/537.36" version="26.0.16">
  <diagram name="Lista 3" id="nX9okQ1EqlyeL2hfu_TC">
    <mxGraphModel grid="1" page="1" gridSize="10" guides="1" tooltips="1" connect="1" arrows="1" fold="1" pageScale="1" pageWidth="827" pageHeight="1169" math="0" shadow="0">
      <root>
        <mxCell id="0" />
        <mxCell id="1" parent="0" />
        <mxCell id="k-c3KjjDfMv12UZTrXx0-1" value="Lista 3 - Estruturas de Repetição" style="text;html=1;align=center;verticalAlign=middle;resizable=0;points=[];autosize=1;strokeColor=none;fillColor=none;fontStyle=1;fontSize=23;" vertex="1" parent="1">
          <mxGeometry x="323" y="30" width="360" height="40" as="geometry" />
        </mxCell>
        <mxCell id="k-c3KjjDfMv12UZTrXx0-2" value="&lt;p style=&quot;box-sizing: border-box; margin: 0px; color: var(--color-content-text); font-family: &amp;quot;Segoe UI&amp;quot;, &amp;quot;Segoe UI Web (West European)&amp;quot;, -apple-system, BlinkMacSystemFont, Roboto, &amp;quot;Helvetica Neue&amp;quot;, sans-serif; font-size: 14px; font-style: normal; font-variant-ligatures: normal; font-variant-caps: normal; font-weight: 400; letter-spacing: normal; orphans: 2; text-align: left; text-indent: 0px; text-transform: none; widows: 2; word-spacing: 0px; -webkit-text-stroke-width: 0px; white-space: normal; text-decoration-thickness: initial; text-decoration-style: initial; text-decoration-color: initial; border-radius: 0px !important;&quot; data-end=&quot;1838&quot; data-start=&quot;1814&quot;&gt;&lt;strong style=&quot;box-sizing: border-box; font-weight: bolder; border-radius: 0px !important;&quot; data-end=&quot;1836&quot; data-start=&quot;1814&quot;&gt;1. Múltiplos de 3 e 5&lt;/strong&gt;&lt;/p&gt;&lt;ul style=&quot;box-sizing: border-box; margin: 12px 0px; list-style: initial; padding-top: revert; padding-right: revert; padding-bottom: revert; padding-left: 32px; color: rgb(36, 36, 36); font-family: &amp;quot;Segoe UI&amp;quot;, &amp;quot;Segoe UI Web (West European)&amp;quot;, -apple-system, BlinkMacSystemFont, Roboto, &amp;quot;Helvetica Neue&amp;quot;, sans-serif; font-size: 14px; font-style: normal; font-variant-ligatures: normal; font-variant-caps: normal; font-weight: 400; letter-spacing: normal; orphans: 2; text-align: left; text-indent: 0px; text-transform: none; widows: 2; word-spacing: 0px; -webkit-text-stroke-width: 0px; white-space: normal; text-decoration-thickness: initial; text-decoration-style: initial; text-decoration-color: initial; border-radius: 0px !important;&quot; data-end=&quot;1909&quot; data-start=&quot;1843&quot;&gt;&lt;li style=&quot;box-sizing: border-box; border-radius: 0px !important;&quot; data-end=&quot;1909&quot; data-start=&quot;1843&quot;&gt;Exiba todos os números entre 1 e 100 que são múltiplos de 3 e 5.&lt;/li&gt;&lt;/ul&gt;" style="text;whiteSpace=wrap;html=1;labelBackgroundColor=default;" vertex="1" parent="1">
          <mxGeometry x="40" y="80" width="280" height="80" as="geometry" />
        </mxCell>
        <mxCell id="k-c3KjjDfMv12UZTrXx0-4" value="Algoritmo &quot;Multiplicação&quot;&lt;div&gt;&lt;br&gt;&lt;/div&gt;&lt;div&gt;INÍCIO&lt;/div&gt;&lt;div&gt;&lt;span style=&quot;color: light-dark(rgb(0, 0, 0), rgb(255, 255, 255));&quot;&gt;&lt;span style=&quot;white-space: pre;&quot;&gt;&#x9;&lt;/span&gt;//Declarar variáveis&lt;/span&gt;&lt;/div&gt;&lt;div&gt;&lt;span style=&quot;white-space: pre;&quot;&gt;&#x9;&lt;/span&gt;i = inteiro&lt;br&gt;&lt;/div&gt;&lt;div&gt;&lt;br&gt;&lt;/div&gt;&lt;div&gt;&lt;span style=&quot;white-space: pre;&quot;&gt;&#x9;&lt;/span&gt;//percorrer os nºs de 1 a 100&lt;br&gt;&lt;/div&gt;&lt;div&gt;&lt;span style=&quot;white-space: pre;&quot;&gt;&#x9;&lt;/span&gt;Para i &amp;lt;- 1 até i &amp;lt;=100 faça&lt;br&gt;&lt;/div&gt;&lt;div&gt;&lt;span style=&quot;white-space: pre;&quot;&gt;&#x9;&lt;/span&gt;&lt;span style=&quot;white-space: pre;&quot;&gt;&#x9;&lt;/span&gt;Se (i MOD 3) e (i MOD 5) então&lt;br&gt;&lt;/div&gt;&lt;div&gt;&lt;span style=&quot;white-space: pre;&quot;&gt;&#x9;&lt;span style=&quot;white-space: pre;&quot;&gt;&#x9;&lt;/span&gt;&lt;span style=&quot;white-space: pre;&quot;&gt;&#x9;&lt;/span&gt;&lt;/span&gt;Escreva i&lt;br&gt;&lt;/div&gt;&lt;div&gt;&lt;span style=&quot;white-space: pre;&quot;&gt;&#x9;&lt;/span&gt;&lt;span style=&quot;white-space: pre;&quot;&gt;&#x9;&lt;/span&gt;FimSe&lt;br&gt;&lt;/div&gt;&lt;div&gt;&lt;span style=&quot;white-space: pre;&quot;&gt;&#x9;&lt;/span&gt;FimPara&lt;br&gt;&lt;/div&gt;&lt;div&gt;FIM&lt;/div&gt;&lt;div&gt;&lt;br&gt;&lt;/div&gt;" style="text;html=1;align=left;verticalAlign=top;whiteSpace=wrap;rounded=0;fontSize=14;labelBackgroundColor=default;" vertex="1" parent="1">
          <mxGeometry x="40" y="200" width="280" height="240" as="geometry" />
        </mxCell>
        <mxCell id="k-c3KjjDfMv12UZTrXx0-5" value="&lt;p style=&quot;box-sizing: border-box; margin: 0px; color: var(--color-content-text); font-family: &amp;quot;Segoe UI&amp;quot;, &amp;quot;Segoe UI Web (West European)&amp;quot;, -apple-system, BlinkMacSystemFont, Roboto, &amp;quot;Helvetica Neue&amp;quot;, sans-serif; font-size: 14px; font-style: normal; font-variant-ligatures: normal; font-variant-caps: normal; font-weight: 400; letter-spacing: normal; orphans: 2; text-align: left; text-indent: 0px; text-transform: none; widows: 2; word-spacing: 0px; -webkit-text-stroke-width: 0px; white-space: normal; text-decoration-thickness: initial; text-decoration-style: initial; text-decoration-color: initial; border-radius: 0px !important;&quot; data-end=&quot;1838&quot; data-start=&quot;1814&quot;&gt;&lt;strong style=&quot;box-sizing: border-box; font-weight: bolder; border-radius: 0px !important;&quot; data-end=&quot;1836&quot; data-start=&quot;1814&quot;&gt;Pseudo-código&lt;/strong&gt;&lt;/p&gt;" style="text;whiteSpace=wrap;html=1;labelBackgroundColor=default;" vertex="1" parent="1">
          <mxGeometry x="40" y="175" width="180" height="40" as="geometry" />
        </mxCell>
        <mxCell id="k-c3KjjDfMv12UZTrXx0-7" value="" style="endArrow=none;html=1;rounded=0;" edge="1" parent="1">
          <mxGeometry width="50" height="50" relative="1" as="geometry">
            <mxPoint x="320" y="600" as="sourcePoint" />
            <mxPoint x="320" y="80" as="targetPoint" />
          </mxGeometry>
        </mxCell>
        <mxCell id="k-c3KjjDfMv12UZTrXx0-9" value="&lt;p style=&quot;forced-color-adjust: none; color: var(--color-content-text); font-style: normal; font-variant-ligatures: normal; font-variant-caps: normal; font-weight: 400; letter-spacing: normal; orphans: 2; text-align: left; text-indent: 0px; text-transform: none; widows: 2; word-spacing: 0px; -webkit-text-stroke-width: 0px; white-space: normal; text-decoration-thickness: initial; text-decoration-style: initial; text-decoration-color: initial; box-sizing: border-box; margin: 0px; font-family: &amp;quot;Segoe UI&amp;quot;, &amp;quot;Segoe UI Web (West European)&amp;quot;, -apple-system, BlinkMacSystemFont, Roboto, &amp;quot;Helvetica Neue&amp;quot;, sans-serif; font-size: 14px; border-radius: 0px !important;&quot; data-start=&quot;2101&quot; data-end=&quot;2126&quot;&gt;&lt;strong style=&quot;forced-color-adjust: none; box-sizing: border-box; font-weight: bolder; border-radius: 0px !important;&quot; data-start=&quot;2101&quot; data-end=&quot;2124&quot;&gt;2. Jogo de Adivinhação&lt;/strong&gt;&lt;/p&gt;&lt;ul style=&quot;forced-color-adjust: none; font-style: normal; font-variant-ligatures: normal; font-variant-caps: normal; font-weight: 400; letter-spacing: normal; orphans: 2; text-align: left; text-indent: 0px; text-transform: none; widows: 2; word-spacing: 0px; -webkit-text-stroke-width: 0px; white-space: normal; text-decoration-thickness: initial; text-decoration-style: initial; text-decoration-color: initial; box-sizing: border-box; margin: 12px 0px; list-style: initial; padding-top: revert; padding-right: revert; padding-bottom: revert; padding-left: 32px; color: light-dark(rgb(36, 36, 36), rgb(206, 206, 206)); font-family: &amp;quot;Segoe UI&amp;quot;, &amp;quot;Segoe UI Web (West European)&amp;quot;, -apple-system, BlinkMacSystemFont, Roboto, &amp;quot;Helvetica Neue&amp;quot;, sans-serif; font-size: 14px; border-radius: 0px !important;&quot; data-start=&quot;2131&quot; data-end=&quot;2255&quot;&gt;&lt;li style=&quot;forced-color-adjust: none; box-sizing: border-box; border-radius: 0px !important;&quot; data-start=&quot;2131&quot; data-end=&quot;2255&quot;&gt;O computador escolhe um número aleatório entre 1 e 100, e o usuário deve adivinhar, recebendo dicas de &quot;maior&quot; ou &quot;menor&quot;.&lt;/li&gt;&lt;/ul&gt;" style="text;whiteSpace=wrap;html=1;labelBackgroundColor=default;" vertex="1" parent="1">
          <mxGeometry x="336" y="80" width="325" height="80" as="geometry" />
        </mxCell>
        <mxCell id="k-c3KjjDfMv12UZTrXx0-10" value="&lt;p style=&quot;forced-color-adjust: none; color: var(--color-content-text); font-style: normal; font-variant-ligatures: normal; font-variant-caps: normal; font-weight: 400; letter-spacing: normal; orphans: 2; text-align: left; text-indent: 0px; text-transform: none; widows: 2; word-spacing: 0px; -webkit-text-stroke-width: 0px; white-space: normal; text-decoration-thickness: initial; text-decoration-style: initial; text-decoration-color: initial; box-sizing: border-box; margin: 0px; font-family: &amp;quot;Segoe UI&amp;quot;, &amp;quot;Segoe UI Web (West European)&amp;quot;, -apple-system, BlinkMacSystemFont, Roboto, &amp;quot;Helvetica Neue&amp;quot;, sans-serif; font-size: 14px; border-radius: 0px !important;&quot; data-end=&quot;2285&quot; data-start=&quot;2261&quot;&gt;&lt;strong style=&quot;forced-color-adjust: none; box-sizing: border-box; font-weight: bolder; border-radius: 0px !important;&quot; data-end=&quot;2283&quot; data-start=&quot;2261&quot;&gt;3. Validação de Senha&lt;/strong&gt;&lt;/p&gt;&lt;ul style=&quot;forced-color-adjust: none; font-style: normal; font-variant-ligatures: normal; font-variant-caps: normal; font-weight: 400; letter-spacing: normal; orphans: 2; text-align: left; text-indent: 0px; text-transform: none; widows: 2; word-spacing: 0px; -webkit-text-stroke-width: 0px; white-space: normal; text-decoration-thickness: initial; text-decoration-style: initial; text-decoration-color: initial; box-sizing: border-box; margin: 12px 0px; list-style: initial; padding-top: revert; padding-right: revert; padding-bottom: revert; padding-left: 32px; color: light-dark(rgb(36, 36, 36), rgb(206, 206, 206)); font-family: &amp;quot;Segoe UI&amp;quot;, &amp;quot;Segoe UI Web (West European)&amp;quot;, -apple-system, BlinkMacSystemFont, Roboto, &amp;quot;Helvetica Neue&amp;quot;, sans-serif; font-size: 14px; border-radius: 0px !important;&quot; data-end=&quot;2376&quot; data-start=&quot;2290&quot;&gt;&lt;li style=&quot;forced-color-adjust: none; box-sizing: border-box; border-radius: 0px !important;&quot; data-end=&quot;2376&quot; data-start=&quot;2290&quot;&gt;Peça uma senha ao usuário e repita a solicitação até que ele insira a senha correta.&lt;/li&gt;&lt;/ul&gt;" style="text;whiteSpace=wrap;html=1;labelBackgroundColor=default;" vertex="1" parent="1">
          <mxGeometry x="690" y="80" width="330" height="230" as="geometry" />
        </mxCell>
        <mxCell id="k-c3KjjDfMv12UZTrXx0-11" value="&lt;p style=&quot;box-sizing: border-box; margin: 0px; color: var(--color-content-text); font-family: &amp;quot;Segoe UI&amp;quot;, &amp;quot;Segoe UI Web (West European)&amp;quot;, -apple-system, BlinkMacSystemFont, Roboto, &amp;quot;Helvetica Neue&amp;quot;, sans-serif; font-size: 14px; font-style: normal; font-variant-ligatures: normal; font-variant-caps: normal; font-weight: 400; letter-spacing: normal; orphans: 2; text-align: left; text-indent: 0px; text-transform: none; widows: 2; word-spacing: 0px; -webkit-text-stroke-width: 0px; white-space: normal; text-decoration-thickness: initial; text-decoration-style: initial; text-decoration-color: initial; border-radius: 0px !important;&quot; data-end=&quot;1838&quot; data-start=&quot;1814&quot;&gt;&lt;strong style=&quot;box-sizing: border-box; font-weight: bolder; border-radius: 0px !important;&quot; data-end=&quot;1836&quot; data-start=&quot;1814&quot;&gt;Pseudo-código&lt;/strong&gt;&lt;/p&gt;" style="text;whiteSpace=wrap;html=1;labelBackgroundColor=default;" vertex="1" parent="1">
          <mxGeometry x="335" y="175" width="180" height="40" as="geometry" />
        </mxCell>
        <mxCell id="k-c3KjjDfMv12UZTrXx0-12" value="Algoritmo &quot;Adivinhação&quot;&lt;div&gt;&lt;br&gt;&lt;/div&gt;&lt;div&gt;INÍCIO&lt;/div&gt;&lt;div&gt;&lt;span style=&quot;white-space: pre;&quot;&gt;&#x9;&lt;/span&gt;var&lt;/div&gt;&lt;div&gt;&lt;span style=&quot;white-space: pre;&quot;&gt;&#x9;&lt;/span&gt;i = inteiro&lt;br&gt;&lt;/div&gt;&lt;div&gt;&lt;span style=&quot;white-space: pre;&quot;&gt;&#x9;&lt;/span&gt;aleatório = inteiro&lt;br&gt;&lt;/div&gt;&lt;div&gt;&lt;br&gt;&lt;/div&gt;&lt;div&gt;&lt;span style=&quot;white-space: pre;&quot;&gt;&#x9;&lt;/span&gt;Escreva (&quot;Para tentar adivinhar o número que escolhi, digite um número entre 1 e 100.&quot;)&lt;br&gt;&lt;/div&gt;&lt;div&gt;&lt;span style=&quot;white-space: pre;&quot;&gt;&#x9;&lt;/span&gt;Se i == aleatório&lt;br&gt;&lt;/div&gt;&lt;div&gt;&lt;span style=&quot;white-space: pre;&quot;&gt;&#x9;&lt;/span&gt;Escreva (&quot;Você acertou!&quot;)&lt;br&gt;&lt;/div&gt;&lt;div&gt;&lt;span style=&quot;white-space: pre;&quot;&gt;&#x9;&lt;/span&gt;Senão&lt;br&gt;&lt;/div&gt;&lt;div&gt;&lt;span style=&quot;white-space: pre;&quot;&gt;&#x9;&lt;/span&gt;&lt;span style=&quot;white-space: pre;&quot;&gt;&#x9;&lt;/span&gt;Se i &amp;lt; aleatório&lt;br&gt;&lt;/div&gt;&lt;div&gt;&lt;span style=&quot;white-space: pre;&quot;&gt;&#x9;&lt;/span&gt;&lt;span style=&quot;white-space: pre;&quot;&gt;&#x9;&lt;/span&gt;Escreva (&quot;O nº é maior.&quot;)&lt;br&gt;&lt;/div&gt;&lt;div&gt;&lt;span style=&quot;white-space: pre;&quot;&gt;&#x9;&lt;span style=&quot;white-space: pre;&quot;&gt;&#x9;&lt;/span&gt;&lt;span style=&quot;white-space: pre;&quot;&gt;&#x9;&lt;/span&gt;&lt;/span&gt;Senão&lt;br&gt;&lt;/div&gt;&lt;div&gt;&lt;span style=&quot;white-space: pre;&quot;&gt;&#x9;&lt;/span&gt;&lt;span style=&quot;white-space: pre;&quot;&gt;&#x9;&lt;span style=&quot;white-space: pre;&quot;&gt;&#x9;&lt;span style=&quot;white-space: pre;&quot;&gt;&#x9;&lt;/span&gt;&lt;/span&gt;&lt;/span&gt;Se i &amp;gt; aleatório&lt;br&gt;&lt;/div&gt;&lt;div&gt;&lt;span style=&quot;white-space: pre;&quot;&gt;&#x9;&lt;/span&gt;&lt;span style=&quot;white-space: pre;&quot;&gt;&#x9;&lt;span style=&quot;white-space: pre;&quot;&gt;&#x9;&lt;/span&gt;&lt;span style=&quot;white-space: pre;&quot;&gt;&#x9;&lt;/span&gt;&lt;/span&gt;Escreva (&quot;O nº é menor.&quot;)&lt;br&gt;&lt;/div&gt;&lt;div&gt;&lt;span style=&quot;white-space: pre;&quot;&gt;&#x9;&lt;/span&gt;&lt;span style=&quot;white-space: pre;&quot;&gt;&#x9;&lt;span style=&quot;white-space: pre;&quot;&gt;&#x9;&lt;/span&gt;FimSenão&lt;/span&gt;&lt;br&gt;&lt;/div&gt;&lt;div&gt;&lt;span style=&quot;white-space: pre;&quot;&gt;&#x9;&lt;/span&gt;&lt;span style=&quot;white-space: pre;&quot;&gt;&#x9;&lt;/span&gt;FimSe&lt;br&gt;&lt;/div&gt;&lt;div&gt;&lt;span style=&quot;white-space: pre;&quot;&gt;&#x9;&lt;/span&gt;FimSe&lt;br&gt;&lt;/div&gt;&lt;div&gt;FIM&lt;/div&gt;&lt;div&gt;&lt;span style=&quot;color: light-dark(rgb(0, 0, 0), rgb(255, 255, 255));&quot;&gt;&lt;span style=&quot;white-space: pre;&quot;&gt;&lt;br&gt;&lt;/span&gt;&lt;/span&gt;&lt;/div&gt;" style="text;html=1;align=left;verticalAlign=top;whiteSpace=wrap;rounded=0;fontSize=14;labelBackgroundColor=default;" vertex="1" parent="1">
          <mxGeometry x="336" y="200" width="334" height="300" as="geometry" />
        </mxCell>
        <mxCell id="k-c3KjjDfMv12UZTrXx0-13" value="" style="endArrow=none;html=1;rounded=0;" edge="1" parent="1">
          <mxGeometry width="50" height="50" relative="1" as="geometry">
            <mxPoint x="680" y="600" as="sourcePoint" />
            <mxPoint x="680" y="80" as="targetPoint" />
          </mxGeometry>
        </mxCell>
        <mxCell id="k-c3KjjDfMv12UZTrXx0-14" value="&lt;p style=&quot;forced-color-adjust: none; color: var(--color-content-text); font-style: normal; font-variant-ligatures: normal; font-variant-caps: normal; font-weight: 400; letter-spacing: normal; orphans: 2; text-align: left; text-indent: 0px; text-transform: none; widows: 2; word-spacing: 0px; -webkit-text-stroke-width: 0px; white-space: normal; text-decoration-thickness: initial; text-decoration-style: initial; text-decoration-color: initial; box-sizing: border-box; margin: 0px; font-family: &amp;quot;Segoe UI&amp;quot;, &amp;quot;Segoe UI Web (West European)&amp;quot;, -apple-system, BlinkMacSystemFont, Roboto, &amp;quot;Helvetica Neue&amp;quot;, sans-serif; font-size: 14px; border-radius: 0px !important;&quot; data-end=&quot;2407&quot; data-start=&quot;2382&quot;&gt;&lt;strong style=&quot;forced-color-adjust: none; box-sizing: border-box; font-weight: bolder; border-radius: 0px !important;&quot; data-end=&quot;2405&quot; data-start=&quot;2382&quot;&gt;4. Contagem Regressiva&lt;/strong&gt;&lt;/p&gt;&lt;ul style=&quot;forced-color-adjust: none; font-style: normal; font-variant-ligatures: normal; font-variant-caps: normal; font-weight: 400; letter-spacing: normal; orphans: 2; text-align: left; text-indent: 0px; text-transform: none; widows: 2; word-spacing: 0px; -webkit-text-stroke-width: 0px; white-space: normal; text-decoration-thickness: initial; text-decoration-style: initial; text-decoration-color: initial; box-sizing: border-box; margin: 12px 0px; list-style: initial; padding-top: revert; padding-right: revert; padding-bottom: revert; padding-left: 32px; color: light-dark(rgb(36, 36, 36), rgb(206, 206, 206)); font-family: &amp;quot;Segoe UI&amp;quot;, &amp;quot;Segoe UI Web (West European)&amp;quot;, -apple-system, BlinkMacSystemFont, Roboto, &amp;quot;Helvetica Neue&amp;quot;, sans-serif; font-size: 14px; border-radius: 0px !important;&quot; data-end=&quot;2477&quot; data-start=&quot;2412&quot;&gt;&lt;li style=&quot;forced-color-adjust: none; box-sizing: border-box; list-style-type: disc; font-size: var(--fontSizeBase300); font-family: var(--fontFamilyBase); border-radius: 0px !important;&quot; data-end=&quot;2477&quot; data-start=&quot;2412&quot;&gt;&lt;span style=&quot;forced-color-adjust: none; box-sizing: border-box; font-size: var(--fontSizeBase300); font-family: var(--fontFamilyBase); font-weight: var(--fontWeightRegular); border-radius: 0px !important;&quot;&gt;Solicite um número&lt;span style=&quot;forced-color-adjust: none;&quot;&gt;&amp;nbsp;&lt;/span&gt;&lt;/span&gt;&lt;strong style=&quot;forced-color-adjust: none; box-sizing: border-box; font-weight: bolder; font-size: var(--fontSizeBase300); font-family: var(--fontFamilyBase); border-radius: 0px !important;&quot; data-end=&quot;2438&quot; data-start=&quot;2433&quot;&gt;N&lt;/strong&gt;&lt;span style=&quot;forced-color-adjust: none; box-sizing: border-box; font-size: var(--fontSizeBase300); font-family: var(--fontFamilyBase); font-weight: var(--fontWeightRegular); border-radius: 0px !important;&quot;&gt;&lt;span style=&quot;forced-color-adjust: none;&quot;&gt;&amp;nbsp;&lt;/span&gt;e exiba uma contagem regressiva até 0.&lt;/span&gt;&lt;/li&gt;&lt;/ul&gt;" style="text;whiteSpace=wrap;html=1;labelBackgroundColor=default;" vertex="1" parent="1">
          <mxGeometry x="235" y="600" width="280" height="70" as="geometry" />
        </mxCell>
        <mxCell id="k-c3KjjDfMv12UZTrXx0-16" value="&lt;p style=&quot;box-sizing: border-box; margin: 0px; color: var(--color-content-text); font-family: &amp;quot;Segoe UI&amp;quot;, &amp;quot;Segoe UI Web (West European)&amp;quot;, -apple-system, BlinkMacSystemFont, Roboto, &amp;quot;Helvetica Neue&amp;quot;, sans-serif; font-size: 14px; font-style: normal; font-variant-ligatures: normal; font-variant-caps: normal; font-weight: 400; letter-spacing: normal; orphans: 2; text-align: left; text-indent: 0px; text-transform: none; widows: 2; word-spacing: 0px; -webkit-text-stroke-width: 0px; white-space: normal; text-decoration-thickness: initial; text-decoration-style: initial; text-decoration-color: initial; border-radius: 0px !important;&quot; data-end=&quot;1838&quot; data-start=&quot;1814&quot;&gt;&lt;strong style=&quot;box-sizing: border-box; font-weight: bolder; border-radius: 0px !important;&quot; data-end=&quot;1836&quot; data-start=&quot;1814&quot;&gt;Pseudo-código&lt;/strong&gt;&lt;/p&gt;" style="text;whiteSpace=wrap;html=1;labelBackgroundColor=default;" vertex="1" parent="1">
          <mxGeometry x="690" y="175" width="180" height="40" as="geometry" />
        </mxCell>
        <mxCell id="k-c3KjjDfMv12UZTrXx0-17" value="Algoritmo &quot;Validação_de_senha&quot;&lt;div&gt;&lt;br&gt;&lt;/div&gt;&lt;div&gt;INÍCIO&lt;/div&gt;&lt;div&gt;&lt;span style=&quot;white-space: pre;&quot;&gt;&#x9;&lt;/span&gt;var&lt;br&gt;&lt;/div&gt;&lt;div&gt;&lt;span style=&quot;white-space: pre;&quot;&gt;&#x9;&lt;/span&gt;senha_correta &amp;lt;- senha123&lt;/div&gt;&lt;div&gt;&lt;span style=&quot;white-space: pre;&quot;&gt;&#x9;&lt;/span&gt;senha_usuário &amp;lt;- &quot; &quot;&lt;br&gt;&lt;/div&gt;&lt;div&gt;&lt;br&gt;&lt;/div&gt;&lt;div&gt;&lt;span style=&quot;white-space: pre;&quot;&gt;&#x9;&lt;/span&gt;enquanto senha_usuário for diferente de senha_correta faça&lt;br&gt;&lt;/div&gt;&lt;div&gt;&lt;span style=&quot;white-space: pre;&quot;&gt;&#x9;&lt;/span&gt;&lt;span style=&quot;white-space: pre;&quot;&gt;&#x9;&lt;/span&gt;escreva(&quot;Digite a senha: &quot;)&lt;br&gt;&lt;/div&gt;&lt;div&gt;&lt;span style=&quot;white-space: pre;&quot;&gt;&#x9;&lt;/span&gt;&lt;span style=&quot;white-space: pre;&quot;&gt;&#x9;&lt;/span&gt;leia senha_usuário&lt;br&gt;&lt;/div&gt;&lt;div&gt;&lt;br&gt;&lt;/div&gt;&lt;div&gt;&lt;span style=&quot;white-space: pre;&quot;&gt;&#x9;&lt;span style=&quot;white-space: pre;&quot;&gt;&#x9;&lt;/span&gt;&lt;/span&gt;se senha_usuário for diferente de senha_correta então&lt;br&gt;&lt;/div&gt;&lt;div&gt;&lt;span style=&quot;white-space: pre;&quot;&gt;&#x9;&lt;/span&gt;&lt;span style=&quot;white-space: pre;&quot;&gt;&#x9;&lt;span style=&quot;white-space: pre;&quot;&gt;&#x9;&lt;/span&gt;&lt;/span&gt;escreva(&quot;Senha errada. Tente de novo: &quot;)&lt;br&gt;&lt;/div&gt;&lt;div&gt;&lt;span style=&quot;white-space: pre;&quot;&gt;&#x9;&lt;span style=&quot;white-space: pre;&quot;&gt;&#x9;&lt;/span&gt;&lt;/span&gt;FimSe&lt;br&gt;&lt;/div&gt;&lt;div&gt;&lt;span style=&quot;white-space: pre;&quot;&gt;&#x9;&lt;/span&gt;FimEnquanto&lt;/div&gt;&lt;div&gt;&lt;br&gt;&lt;/div&gt;&lt;div&gt;&lt;span style=&quot;white-space: pre;&quot;&gt;&#x9;&lt;/span&gt;escreva(&quot;Senha certa! Acesso liberado.&quot;)&lt;br&gt;&lt;/div&gt;&lt;div&gt;FimAlgoritmo&lt;/div&gt;" style="text;html=1;align=left;verticalAlign=top;whiteSpace=wrap;rounded=0;fontSize=14;labelBackgroundColor=default;" vertex="1" parent="1">
          <mxGeometry x="686" y="220" width="334" height="300" as="geometry" />
        </mxCell>
        <mxCell id="0JwxhWykOXu5prdNGqoO-1" value="" style="endArrow=none;html=1;rounded=0;" edge="1" parent="1">
          <mxGeometry width="50" height="50" relative="1" as="geometry">
            <mxPoint x="1040" y="600" as="sourcePoint" />
            <mxPoint x="40" y="600" as="targetPoint" />
          </mxGeometry>
        </mxCell>
        <mxCell id="0JwxhWykOXu5prdNGqoO-2" value="&lt;p style=&quot;forced-color-adjust: none; color: var(--color-content-text); font-family: &amp;quot;Segoe UI&amp;quot;, &amp;quot;Segoe UI Web (West European)&amp;quot;, -apple-system, BlinkMacSystemFont, Roboto, &amp;quot;Helvetica Neue&amp;quot;, sans-serif; font-size: 14px; font-style: normal; font-variant-ligatures: normal; font-variant-caps: normal; font-weight: 400; letter-spacing: normal; orphans: 2; text-align: left; text-indent: 0px; text-transform: none; widows: 2; word-spacing: 0px; -webkit-text-stroke-width: 0px; white-space: normal; text-decoration-thickness: initial; text-decoration-style: initial; text-decoration-color: initial; box-sizing: border-box; margin: 0px; border-radius: 0px !important;&quot; data-start=&quot;1404&quot; data-end=&quot;1430&quot;&gt;&lt;strong style=&quot;forced-color-adjust: none; box-sizing: border-box; font-weight: bolder; border-radius: 0px !important;&quot; data-start=&quot;1404&quot; data-end=&quot;1428&quot;&gt;5. Tabuada de um Número&lt;/strong&gt;&lt;/p&gt;&lt;ul style=&quot;forced-color-adjust: none; color: rgb(36, 36, 36); font-family: &amp;quot;Segoe UI&amp;quot;, &amp;quot;Segoe UI Web (West European)&amp;quot;, -apple-system, BlinkMacSystemFont, Roboto, &amp;quot;Helvetica Neue&amp;quot;, sans-serif; font-size: 14px; font-style: normal; font-variant-ligatures: normal; font-variant-caps: normal; font-weight: 400; letter-spacing: normal; orphans: 2; text-align: left; text-indent: 0px; text-transform: none; widows: 2; word-spacing: 0px; -webkit-text-stroke-width: 0px; white-space: normal; text-decoration-thickness: initial; text-decoration-style: initial; text-decoration-color: initial; box-sizing: border-box; margin: 12px 0px; list-style: initial; padding-top: revert; padding-right: revert; padding-bottom: revert; padding-left: 32px; border-radius: 0px !important;&quot; data-start=&quot;1434&quot; data-end=&quot;1482&quot;&gt;&lt;li style=&quot;forced-color-adjust: none; box-sizing: border-box; border-radius: 0px !important;&quot; data-start=&quot;1434&quot; data-end=&quot;1482&quot;&gt;Peça um número e exiba sua tabuada do 1 ao 10.&lt;/li&gt;&lt;/ul&gt;" style="text;whiteSpace=wrap;html=1;labelBackgroundColor=default;" vertex="1" parent="1">
          <mxGeometry x="530" y="600" width="290" height="70" as="geometry" />
        </mxCell>
        <mxCell id="0JwxhWykOXu5prdNGqoO-3" value="" style="endArrow=none;html=1;rounded=0;" edge="1" parent="1">
          <mxGeometry width="50" height="50" relative="1" as="geometry">
            <mxPoint x="515" y="1020" as="sourcePoint" />
            <mxPoint x="515" y="600" as="targetPoint" />
          </mxGeometry>
        </mxCell>
        <mxCell id="0JwxhWykOXu5prdNGqoO-4" value="Algoritmo &quot;Contagem_Regressiva&quot;&lt;div&gt;&lt;br&gt;&lt;/div&gt;&lt;div&gt;INÍCIO&lt;/div&gt;&lt;div&gt;&lt;span style=&quot;white-space: pre;&quot;&gt;&#x9;&lt;/span&gt;Var&lt;br&gt;&lt;/div&gt;&lt;div&gt;&lt;span style=&quot;white-space: pre;&quot;&gt;&#x9;&lt;/span&gt;N: double&lt;br&gt;&lt;/div&gt;&lt;div&gt;&lt;span style=&quot;white-space: pre;&quot;&gt;&#x9;&lt;/span&gt;&lt;br&gt;&lt;/div&gt;&lt;div&gt;&lt;span style=&quot;color: light-dark(rgb(0, 0, 0), rgb(255, 255, 255));&quot;&gt;&lt;span style=&quot;white-space: pre;&quot;&gt;&#x9;&lt;/span&gt;Escreva(&quot;Digite um número: &quot;)&lt;/span&gt;&lt;/div&gt;&lt;div&gt;&lt;span style=&quot;color: light-dark(rgb(0, 0, 0), rgb(255, 255, 255));&quot;&gt;&lt;span style=&quot;white-space: pre;&quot;&gt;&#x9;&lt;/span&gt;Leia N&lt;br&gt;&lt;/span&gt;&lt;/div&gt;&lt;div&gt;&lt;span style=&quot;color: light-dark(rgb(0, 0, 0), rgb(255, 255, 255));&quot;&gt;&lt;br&gt;&lt;/span&gt;&lt;/div&gt;&lt;div&gt;&lt;span style=&quot;color: light-dark(rgb(0, 0, 0), rgb(255, 255, 255));&quot;&gt;&lt;span style=&quot;white-space: pre;&quot;&gt;&#x9;&lt;/span&gt;Enquanto N &amp;gt;= 0 faça&lt;br&gt;&lt;/span&gt;&lt;/div&gt;&lt;div&gt;&lt;span style=&quot;color: light-dark(rgb(0, 0, 0), rgb(255, 255, 255));&quot;&gt;&lt;span style=&quot;white-space: pre;&quot;&gt;&#x9;&lt;/span&gt;&lt;span style=&quot;white-space: pre;&quot;&gt;&#x9;&lt;/span&gt;Escreva N&lt;br&gt;&lt;/span&gt;&lt;/div&gt;&lt;div&gt;&lt;span style=&quot;color: light-dark(rgb(0, 0, 0), rgb(255, 255, 255));&quot;&gt;&lt;span style=&quot;white-space: pre;&quot;&gt;&#x9;&lt;/span&gt;&lt;span style=&quot;white-space: pre;&quot;&gt;&#x9;&lt;/span&gt;N &amp;lt;- N - 1&lt;br&gt;&lt;/span&gt;&lt;/div&gt;&lt;div&gt;&lt;span style=&quot;color: light-dark(rgb(0, 0, 0), rgb(255, 255, 255));&quot;&gt;&lt;span style=&quot;white-space: pre;&quot;&gt;&#x9;&lt;/span&gt;FimEnquanto&lt;br&gt;&lt;/span&gt;&lt;/div&gt;&lt;div&gt;&lt;span style=&quot;color: light-dark(rgb(0, 0, 0), rgb(255, 255, 255));&quot;&gt;&lt;br&gt;&lt;/span&gt;&lt;/div&gt;&lt;div&gt;&lt;span style=&quot;color: light-dark(rgb(0, 0, 0), rgb(255, 255, 255));&quot;&gt;&lt;span style=&quot;white-space: pre;&quot;&gt;&#x9;&lt;/span&gt;Escreva(&quot;Fim da contagem regressiva.&quot;)&lt;br&gt;&lt;/span&gt;&lt;/div&gt;&lt;div&gt;&lt;br&gt;&lt;/div&gt;&lt;div&gt;FIM_ALGORITMO&lt;/div&gt;" style="text;html=1;align=left;verticalAlign=top;whiteSpace=wrap;rounded=0;fontSize=14;labelBackgroundColor=default;" vertex="1" parent="1">
          <mxGeometry x="235" y="695" width="280" height="315" as="geometry" />
        </mxCell>
        <mxCell id="0JwxhWykOXu5prdNGqoO-5" value="&lt;p style=&quot;box-sizing: border-box; margin: 0px; color: var(--color-content-text); font-family: &amp;quot;Segoe UI&amp;quot;, &amp;quot;Segoe UI Web (West European)&amp;quot;, -apple-system, BlinkMacSystemFont, Roboto, &amp;quot;Helvetica Neue&amp;quot;, sans-serif; font-size: 14px; font-style: normal; font-variant-ligatures: normal; font-variant-caps: normal; font-weight: 400; letter-spacing: normal; orphans: 2; text-align: left; text-indent: 0px; text-transform: none; widows: 2; word-spacing: 0px; -webkit-text-stroke-width: 0px; white-space: normal; text-decoration-thickness: initial; text-decoration-style: initial; text-decoration-color: initial; border-radius: 0px !important;&quot; data-end=&quot;1838&quot; data-start=&quot;1814&quot;&gt;&lt;strong style=&quot;box-sizing: border-box; font-weight: bolder; border-radius: 0px !important;&quot; data-end=&quot;1836&quot; data-start=&quot;1814&quot;&gt;Pseudo-código&lt;/strong&gt;&lt;/p&gt;" style="text;whiteSpace=wrap;html=1;labelBackgroundColor=default;" vertex="1" parent="1">
          <mxGeometry x="235" y="670" width="180" height="40" as="geometry" />
        </mxCell>
        <mxCell id="0JwxhWykOXu5prdNGqoO-6" value="Algoritmo &quot;Tabuada do 10&quot;&lt;div&gt;&lt;br&gt;&lt;/div&gt;&lt;div&gt;INÍCIO&lt;/div&gt;&lt;div&gt;&lt;span style=&quot;white-space: pre;&quot;&gt;&#x9;&lt;/span&gt;Var&lt;br&gt;&lt;/div&gt;&lt;div&gt;&lt;span style=&quot;white-space: pre;&quot;&gt;&#x9;&lt;/span&gt;N, i, resultado: double&lt;br&gt;&lt;/div&gt;&lt;div&gt;&lt;br&gt;&lt;/div&gt;&lt;div&gt;&lt;span style=&quot;white-space: pre;&quot;&gt;&#x9;&lt;/span&gt;Escreva(&quot;Digite um número: &quot;)&lt;br&gt;&lt;/div&gt;&lt;div&gt;&lt;span style=&quot;white-space: pre;&quot;&gt;&#x9;&lt;/span&gt;Leia N&lt;br&gt;&lt;/div&gt;&lt;div&gt;&lt;br&gt;&lt;/div&gt;&lt;div&gt;&lt;span style=&quot;white-space: pre;&quot;&gt;&#x9;&lt;/span&gt;Para i de 1 até 10 faça&lt;br&gt;&lt;/div&gt;&lt;div&gt;&lt;span style=&quot;white-space: pre;&quot;&gt;&#x9;&lt;/span&gt;&lt;span style=&quot;white-space: pre;&quot;&gt;&#x9;&lt;/span&gt;resultado &amp;lt;- numero * i&lt;br&gt;&lt;/div&gt;&lt;div&gt;&lt;span style=&quot;white-space: pre;&quot;&gt;&#x9;&lt;/span&gt;&lt;span style=&quot;white-space: pre;&quot;&gt;&#x9;&lt;/span&gt;Escreva numero + &quot;x&quot; + i + &quot; = &quot; + resultado&lt;br&gt;&lt;/div&gt;&lt;div&gt;&lt;span style=&quot;white-space: pre;&quot;&gt;&#x9;&lt;/span&gt;FimPara&lt;br&gt;&lt;/div&gt;&lt;div&gt;&lt;br&gt;&lt;/div&gt;&lt;div&gt;FIM_ALGORITMO&lt;/div&gt;&lt;div&gt;&lt;span style=&quot;color: light-dark(rgb(0, 0, 0), rgb(255, 255, 255));&quot;&gt;&lt;span style=&quot;white-space: pre;&quot;&gt;&#x9;&lt;/span&gt;&lt;/span&gt;&lt;/div&gt;&lt;div&gt;&lt;br&gt;&lt;/div&gt;" style="text;html=1;align=left;verticalAlign=top;whiteSpace=wrap;rounded=0;fontSize=14;labelBackgroundColor=default;" vertex="1" parent="1">
          <mxGeometry x="530" y="695" width="280" height="285" as="geometry" />
        </mxCell>
        <mxCell id="0JwxhWykOXu5prdNGqoO-7" value="&lt;p style=&quot;box-sizing: border-box; margin: 0px; color: var(--color-content-text); font-family: &amp;quot;Segoe UI&amp;quot;, &amp;quot;Segoe UI Web (West European)&amp;quot;, -apple-system, BlinkMacSystemFont, Roboto, &amp;quot;Helvetica Neue&amp;quot;, sans-serif; font-size: 14px; font-style: normal; font-variant-ligatures: normal; font-variant-caps: normal; font-weight: 400; letter-spacing: normal; orphans: 2; text-align: left; text-indent: 0px; text-transform: none; widows: 2; word-spacing: 0px; -webkit-text-stroke-width: 0px; white-space: normal; text-decoration-thickness: initial; text-decoration-style: initial; text-decoration-color: initial; border-radius: 0px !important;&quot; data-end=&quot;1838&quot; data-start=&quot;1814&quot;&gt;&lt;strong style=&quot;box-sizing: border-box; font-weight: bolder; border-radius: 0px !important;&quot; data-end=&quot;1836&quot; data-start=&quot;1814&quot;&gt;Pseudo-código&lt;/strong&gt;&lt;/p&gt;" style="text;whiteSpace=wrap;html=1;labelBackgroundColor=default;" vertex="1" parent="1">
          <mxGeometry x="530" y="670" width="180" height="40" as="geometry" />
        </mxCell>
        <mxCell id="0JwxhWykOXu5prdNGqoO-8" value="" style="endArrow=none;html=1;rounded=0;" edge="1" parent="1">
          <mxGeometry width="50" height="50" relative="1" as="geometry">
            <mxPoint x="1040" y="1020" as="sourcePoint" />
            <mxPoint x="40" y="1020" as="targetPoint" />
          </mxGeometry>
        </mxCell>
        <mxCell id="0JwxhWykOXu5prdNGqoO-9" value="" style="endArrow=none;html=1;rounded=0;" edge="1" parent="1">
          <mxGeometry width="50" height="50" relative="1" as="geometry">
            <mxPoint x="1040" y="78.82000000000005" as="sourcePoint" />
            <mxPoint x="40" y="78.82000000000005" as="targetPoint" />
          </mxGeometry>
        </mxCell>
      </root>
    </mxGraphModel>
  </diagram>
</mxfile>
